<svg width="264" height="264" viewBox="0 0 264 264" fill="none" xmlns="http://www.w3.org/2000/svg">
<circle cx="132" cy="132" r="132" fill="#FFC663"/>
<path d="M124.289 174H109.055V153.375H55.5V174H40.2656V131.988C40.2656 125.855 41.3203 120.211 43.4297 115.055C45.5391 109.898 48.4688 105.465 52.2188 101.754C55.9688 98.043 60.4023 95.1523 65.5195 93.082C70.6367 91.0117 76.2227 89.9766 82.2773 89.9766H116.613C117.668 89.9766 118.664 90.1719 119.602 90.5625C120.539 90.9531 121.359 91.5 122.062 92.2031C122.766 92.9062 123.312 93.7266 123.703 94.6641C124.094 95.6016 124.289 96.5977 124.289 97.6523V174ZM55.5 138.141H109.055V105.211H82.2773C81.8086 105.211 80.8125 105.289 79.2891 105.445C77.8047 105.562 76.0664 105.895 74.0742 106.441C72.1211 106.988 70.0508 107.828 67.8633 108.961C65.6758 110.094 63.6641 111.656 61.8281 113.648C59.9922 115.641 58.4688 118.141 57.2578 121.148C56.0859 124.117 55.5 127.73 55.5 131.988V138.141ZM230.109 174H208.488L174.211 139.664H163.488V124.312H174.211L208.488 89.9766H230.109L186.926 131.988L230.109 174ZM157.395 174H142.16V89.9766H157.395V174Z" fill="black"/>
</svg>
