<svg width="147" height="142" viewBox="0 0 147 142" fill="none" xmlns="http://www.w3.org/2000/svg">
<path d="M15.4319 85.4779V18.1503C15.4319 10.8751 21.3296 4.97748 28.6047 4.97748H118.18C125.455 4.97748 131.353 10.8751 131.353 18.1503V85.4779M15.4319 85.4779H131.353ZM15.4319 85.4779L5.68197 119.947C3.30388 128.355 9.62018 136.706 18.3575 136.706H128.427C137.165 136.706 143.481 128.355 141.103 119.947L131.353 85.4779" fill="#FFF5E7"/>
<path d="M15.4319 85.4779V18.1503C15.4319 10.8751 21.3296 4.97748 28.6047 4.97748H118.18C125.455 4.97748 131.353 10.8751 131.353 18.1503V85.4779M15.4319 85.4779H131.353M15.4319 85.4779L5.68197 119.947C3.30388 128.355 9.62018 136.706 18.3575 136.706H128.427C137.165 136.706 143.481 128.355 141.103 119.947L131.353 85.4779" stroke="#FFC663" stroke-width="9.87962"/>
<path d="M66.8086 116.947H79.9814Z" fill="#FFF5E7"/>
<path d="M66.8086 116.947H79.9814" stroke="#FFC663" stroke-width="9.87962" stroke-linecap="round" stroke-linejoin="round"/>
<path d="M58.2317 37.834L48.8648 45.6398L58.2317 53.4455C58.8517 53.9622 59.2411 54.704 59.3141 55.5077C59.3872 56.3115 59.138 57.1113 58.6213 57.7313C58.1047 58.3513 57.3629 58.7407 56.5591 58.8138C55.7554 58.8869 54.9555 58.6377 54.3355 58.121L42.1633 47.9775C41.8206 47.6919 41.5449 47.3345 41.3557 46.9305C41.1664 46.5265 41.0684 46.0859 41.0684 45.6398C41.0684 45.1937 41.1664 44.753 41.3557 44.349C41.5449 43.945 41.8206 43.5876 42.1633 43.302L54.3355 33.1585C54.6425 32.9027 54.9969 32.7098 55.3784 32.591C55.7599 32.4721 56.1611 32.4295 56.5591 32.4657C56.9571 32.5019 57.3441 32.6161 57.6979 32.8019C58.0517 32.9876 58.3655 33.2412 58.6213 33.5482C58.8772 33.8552 59.07 34.2096 59.1889 34.5911C59.3078 34.9726 59.3503 35.3738 59.3141 35.7718C59.278 36.1698 59.1637 36.5567 58.978 36.9106C58.7923 37.2644 58.5387 37.5782 58.2317 37.834ZM102.863 43.302L90.6908 33.1585C90.3838 32.9027 90.0294 32.7098 89.6479 32.591C89.2664 32.4721 88.8652 32.4295 88.4672 32.4657C88.0692 32.5019 87.6823 32.6161 87.3284 32.8019C86.9746 32.9876 86.6608 33.2412 86.405 33.5482C86.1492 33.8552 85.9563 34.2096 85.8374 34.5911C85.7186 34.9726 85.676 35.3738 85.7122 35.7718C85.7484 36.1698 85.8626 36.5567 86.0483 36.9106C86.234 37.2644 86.4876 37.5782 86.7946 37.834L96.1615 45.6398L86.7946 53.4455C86.4876 53.7013 86.234 54.0151 86.0483 54.3689C85.8626 54.7228 85.7484 55.1097 85.7122 55.5077C85.6391 56.3115 85.8883 57.1113 86.405 57.7313C86.9216 58.3513 87.6634 58.7407 88.4672 58.8138C88.8652 58.85 89.2664 58.8074 89.6479 58.6885C90.0294 58.5697 90.3838 58.3768 90.6908 58.121L102.863 47.9775C103.206 47.6919 103.481 47.3345 103.671 46.9305C103.86 46.5265 103.958 46.0859 103.958 45.6398C103.958 45.1937 103.86 44.753 103.671 44.349C103.481 43.945 103.206 43.5876 102.863 43.302ZM81.6679 20.4643C80.9094 20.1886 80.0725 20.2255 79.3412 20.5668C78.6099 20.9081 78.0441 21.5258 77.7682 22.2842L61.5386 66.9156C61.4018 67.2912 61.3403 67.6901 61.3577 68.0894C61.3751 68.4888 61.471 68.8808 61.64 69.2431C61.8089 69.6054 62.0476 69.9309 62.3424 70.2009C62.6372 70.4709 62.9823 70.6802 63.3579 70.8168C63.7336 70.9534 64.1325 71.0146 64.5319 70.997C64.9313 70.9794 65.3232 70.8833 65.6854 70.7141C66.0476 70.545 66.373 70.3061 66.6428 70.0112C66.9127 69.7162 67.1218 69.371 67.2582 68.9953L83.4877 24.364C83.6243 23.9884 83.6856 23.5896 83.668 23.1904C83.6505 22.7912 83.5545 22.3993 83.3855 22.0372C83.2165 21.6751 82.9779 21.3498 82.6832 21.0799C82.3885 20.8101 82.0435 20.6009 81.6679 20.4643Z" fill="#FFBC5E"/>
</svg>
