<svg width="142" height="138" viewBox="0 0 142 138" fill="none" xmlns="http://www.w3.org/2000/svg">
<path d="M13.2551 83.5004V16.1728C13.2551 8.89767 19.1528 3 26.428 3H116.003C123.279 3 129.176 8.89767 129.176 16.1728V83.5004M13.2551 83.5004H129.176ZM13.2551 83.5004L3.50521 117.97C1.12712 126.377 7.44342 134.728 16.1807 134.728H126.25C134.988 134.728 141.304 126.377 138.926 117.97L129.176 83.5004" fill="#FFC663" fill-opacity="0.18"/>
<path d="M13.2551 83.5004V16.1728C13.2551 8.89767 19.1528 3 26.428 3H116.003C123.279 3 129.176 8.89767 129.176 16.1728V83.5004M13.2551 83.5004H129.176M13.2551 83.5004L3.50521 117.97C1.12712 126.377 7.44342 134.728 16.1807 134.728H126.25C134.988 134.728 141.304 126.377 138.926 117.97L129.176 83.5004" stroke="#FFC663" stroke-width="5"/>
<path d="M64.6318 114.969H77.8047Z" fill="#FFC663" fill-opacity="0.18"/>
<path d="M64.6318 114.969H77.8047" stroke="#FFC663" stroke-width="5" stroke-linecap="round" stroke-linejoin="round"/>
<path d="M56.0549 35.8566L46.688 43.6623L56.0549 51.468C56.6749 51.9847 57.0643 52.7265 57.1374 53.5302C57.2105 54.334 56.9612 55.1338 56.4446 55.7539C55.9279 56.3739 55.1861 56.7632 54.3824 56.8363C53.5786 56.9094 52.7788 56.6602 52.1587 56.1435L39.9866 46C39.6438 45.7145 39.3681 45.357 39.1789 44.953C38.9897 44.549 38.8916 44.1084 38.8916 43.6623C38.8916 43.2162 38.9897 42.7755 39.1789 42.3715C39.3681 41.9676 39.6438 41.6101 39.9866 41.3245L52.1587 31.181C52.4657 30.9252 52.8201 30.7324 53.2016 30.6135C53.5832 30.4946 53.9844 30.4521 54.3824 30.4882C54.7803 30.5244 55.1673 30.6386 55.5211 30.8244C55.875 31.0101 56.1888 31.2637 56.4446 31.5707C56.7004 31.8777 56.8933 32.2321 57.0121 32.6136C57.131 32.9951 57.1736 33.3964 57.1374 33.7943C57.1012 34.1923 56.987 34.5793 56.8012 34.9331C56.6155 35.2869 56.3619 35.6007 56.0549 35.8566ZM100.686 41.3245L88.5141 31.181C88.2071 30.9252 87.8527 30.7324 87.4712 30.6135C87.0896 30.4946 86.6884 30.4521 86.2904 30.4882C85.8925 30.5244 85.5055 30.6386 85.1517 30.8244C84.7978 31.0101 84.484 31.2637 84.2282 31.5707C83.9724 31.8777 83.7795 32.2321 83.6607 32.6136C83.5418 32.9951 83.4992 33.3964 83.5354 33.7943C83.5716 34.1923 83.6858 34.5793 83.8716 34.9331C84.0573 35.2869 84.3109 35.6007 84.6179 35.8566L93.9848 43.6623L84.6179 51.468C84.3109 51.7238 84.0573 52.0376 83.8716 52.3915C83.6858 52.7453 83.5716 53.1323 83.5354 53.5302C83.4623 54.334 83.7116 55.1338 84.2282 55.7539C84.7449 56.3739 85.4867 56.7632 86.2904 56.8363C86.6884 56.8725 87.0896 56.8299 87.4712 56.7111C87.8527 56.5922 88.2071 56.3993 88.5141 56.1435L100.686 46C101.029 45.7145 101.305 45.357 101.494 44.953C101.683 44.549 101.781 44.1084 101.781 43.6623C101.781 43.2162 101.683 42.7755 101.494 42.3715C101.305 41.9676 101.029 41.6101 100.686 41.3245ZM79.4912 18.4868C78.7327 18.2112 77.8958 18.248 77.1645 18.5893C76.4331 18.9306 75.8673 19.5484 75.5914 20.3068L59.3618 64.9381C59.225 65.3137 59.1636 65.7126 59.1809 66.112C59.1983 66.5113 59.2943 66.9034 59.4632 67.2657C59.6322 67.6279 59.8709 67.9534 60.1656 68.2234C60.4604 68.4934 60.8055 68.7027 61.1812 68.8393C61.5569 68.9759 61.9558 69.0372 62.3552 69.0195C62.7545 69.0019 63.1465 68.9058 63.5087 68.7366C63.8709 68.5675 64.1962 68.3286 64.4661 68.0337C64.7359 67.7388 64.945 67.3936 65.0814 67.0178L81.311 22.3865C81.4476 22.0109 81.5088 21.6122 81.4913 21.2129C81.4737 20.8137 81.3777 20.4219 81.2087 20.0597C81.0398 19.6976 80.8011 19.3723 80.5064 19.1025C80.2117 18.8326 79.8667 18.6234 79.4912 18.4868Z" fill="#FFBC5E"/>
</svg>
